#!OML:ASF G:\ViconDB\ViconDB\414\test\team2\shane.ASF
:FULLY-SPECIFIED
:DEGREES
408
root 5.83586 16.3605 31.9374 -7.9754 8.83699 -7.59262
lowerback 3.85684 -4.76641 1.71492
upperback 1.40411 -6.24962 6.91749
thorax -0.104692 -3.16104 6.44428
lowerneck -18.7865 1.56126 -2.9088
upperneck 21.4138 2.03588 4.05639
head 9.82317 1.18574 2.18815
rclavicle 7.35752e-014 1.59028e-014
rhumerus -44.6436 -12.2555 -73.1147
rradius 23.6228
rwrist 44.452
rhand -28.6835 -14.8215
rfingers 7.12502
rthumb -2.04601 -44.7915
lclavicle 7.35752e-014 1.59028e-014
lhumerus -30.3757 -23.2953 102.569
lradius 30.418
lwrist -11.4653
lhand -38.7256 6.71527
lfingers 7.12502
lthumb -11.7391 36.3663
rfemur -15.0972 -16.1048 23.5304
rtibia 45.2034
rfoot -22.8294 6.77469
rtoes -6.00708
lfemur 21.2774 -0.924465 -1.01812
ltibia 40.2867
lfoot -6.52434 -16.8478
ltoes -11.0555
409
root 5.79931 16.3405 32.107 -8.01 8.75235 -8.06438
lowerback 3.69526 -4.58998 2.13016
upperback 1.51516 -6.01394 7.03684
thorax 0.047499 -3.04191 6.3111
lowerneck -18.5754 1.48399 -2.98135
upperneck 21.0768 1.92956 4.14194
head 9.66731 1.14121 2.20486
rclavicle 6.12008e-014 -4.77083e-015
rhumerus -44.6436 -12.2555 -73.1147
rradius 23.6228
rwrist 44.452
rhand -28.6835 -14.8215
rfingers 7.12502
rthumb -2.04601 -44.7915
lclavicle 6.12008e-014 -4.77083e-015
lhumerus -30.9998 -23.8718 102.773
lradius 30.656
lwrist -11.0222
lhand -38.4255 6.75715
lfingers 7.12502
lthumb -11.4497 36.4245
rfemur -14.5569 -16.1547 24.2258
rtibia 45.3876
rfoot -23.4969 6.60765
rtoes -5.29798
lfemur 19.4077 -0.663536 0.00133315
ltibia 44.1389
lfoot -6.77902 -17.3509
ltoes -7.49696
410
root 5.76612 16.3187 32.2803 -8.20143 9.0655 -8.56265
lowerback 3.51576 -4.57514 2.54573
upperback 1.71758 -6.00521 7.1521
thorax 0.327001 -3.03759 6.17359
lowerneck -18.3908 1.45926 -2.95949
upperneck 20.6571 1.90536 4.08632
head 9.48777 1.1261 2.16637
rclavicle 4.74598e-014 -3.65764e-014
rhumerus -41.9861 -8.60194 -77.2963
rradius 25.6458
rwrist 38.8145
rhand -27.7282 -15.2003
rfingers 7.12502
rthumb -1.12336 -45.177
lclavicle 4.74598e-014 -3.65764e-014
lhumerus -31.4379 -24.6385 102.947
lradius 30.8629
lwrist -10.4255
lhand -38.1385 6.66884
lfingers 7.12502
lthumb -11.1728 36.3514
rfemur -13.7795 -16.5145 24.8027
rtibia 45.4965
rfoot -24.3116 6.24536
rtoes -5.03831
lfemur 17.5846 -0.495039 1.09536
ltibia 47.7825
lfoot -8.36361 -17.5639
ltoes -8.04465
411
root 5.73328 16.2956 32.4506 -8.42207 9.27368 -9.11217
lowerback 3.36476 -4.46097 3.03688
upperback 1.89857 -5.86004 7.30119
thorax 0.553422 -2.96171 6.03175
lowerneck -18.0317 1.25927 -3.25749
upperneck 20.1522 1.67644 4.24258
head 9.25045 1.01391 2.22403
rclavicle 2.17918e-014 -3.49861e-014
rhumerus -41.352 -7.03607 -78.4953
rradius 26.2921
rwrist 37.0615
rhand -28.2879 -15.843
rfingers 7.12502
rthumb -1.664 -45.8163
lclavicle 2.17918e-014 -3.49861e-014
lhumerus -31.935 -25.7999 103.371
lradius 30.8957
lwrist -9.69998
lhand -38.0927 6.62196
lfingers 7.12502
lthumb -11.1286 36.3069
rfemur -12.9889 -16.6624 25.4623
rtibia 45.5357
rfoot -24.9902 5.76523
rtoes -5.03038
lfemur 15.7956 -0.0896647 2.23571
ltibia 51.1661
lfoot -10.2428 -17.1998
ltoes -9.94701
412
root 5.71058 16.2787 32.6172 -8.75597 9.35909 -9.78069
lowerback 3.39959 -4.35599 3.78807
upperback 2.10519 -5.70761 7.42188
thorax 0.675897 -2.87629 5.73173
lowerneck -17.6563 1.20769 -3.22248
upperneck 19.6992 1.60584 4.19012
head 9.02938 0.977055 2.17622
rclavicle 8.18744e-015 3.33958e-014
rhumerus -40.7732 -5.63743 -79.5039
rradius 27.0097
rwrist 36.2631
rhand -28.393 -16.0093
rfingers 7.12502
rthumb -1.76546 -45.9817
lclavicle 8.18744e-015 3.33958e-014
lhumerus -32.2703 -26.4674 103.505
lradius 30.8543
lwrist -9.71307
lhand -37.9077 6.81229
lfingers 7.12502
lthumb -10.9502 36.5067
rfemur -12.0437 -16.645 26.1835
rtibia 45.4659
rfoot -25.5203 5.37067
rtoes -5.12015
lfemur 14.1779 -0.198644 3.31763
ltibia 54.3046
lfoot -11.0642 -16.8877
ltoes -9.5728
